<mxfile host="65bd71144e">
    <diagram id="kiC7Fy-Wdv5dh07NvFkj" name="AnalyzerHost Channels">
        <mxGraphModel grid="1" gridSize="10" guides="1" tooltips="1" connect="1" arrows="1" page="0" fold="1" pageScale="1" pageWidth="827" pageHeight="1169" math="0" shadow="1">
            <root>
                <mxCell id="0"/>
                <mxCell id="1" parent="0"/>
                <mxCell id="30" value="" style="rounded=0;whiteSpace=wrap;html=1;" vertex="1" parent="1">
                    <mxGeometry x="60" y="240" width="650" height="610" as="geometry"/>
                </mxCell>
                <mxCell id="2" value="&amp;nbsp; AnalyzerHost" style="rounded=1;whiteSpace=wrap;html=1;arcSize=4;align=left;verticalAlign=top;" parent="1" vertex="1">
                    <mxGeometry x="160" y="340" width="520" height="390" as="geometry"/>
                </mxCell>
                <mxCell id="3" value="&amp;nbsp; ProtocolMachine" style="rounded=1;whiteSpace=wrap;html=1;arcSize=4;align=left;verticalAlign=top;" parent="1" vertex="1">
                    <mxGeometry x="200" y="370" width="460" height="340" as="geometry"/>
                </mxCell>
                <mxCell id="6" value="" style="group" parent="1" vertex="1" connectable="0">
                    <mxGeometry x="150" y="460" width="20" height="40" as="geometry"/>
                </mxCell>
                <mxCell id="4" value="" style="rounded=0;whiteSpace=wrap;html=1;" parent="6" vertex="1">
                    <mxGeometry width="20" height="20" as="geometry"/>
                </mxCell>
                <mxCell id="5" value="" style="rounded=0;whiteSpace=wrap;html=1;" parent="6" vertex="1">
                    <mxGeometry y="20" width="20" height="20" as="geometry"/>
                </mxCell>
                <mxCell id="7" value="&amp;nbsp; Analyzer" style="rounded=1;whiteSpace=wrap;html=1;arcSize=4;align=left;verticalAlign=top;" parent="1" vertex="1">
                    <mxGeometry x="500" y="455" width="130" height="70" as="geometry"/>
                </mxCell>
                <mxCell id="8" value="" style="group" parent="1" vertex="1" connectable="0">
                    <mxGeometry x="410" y="460" width="20" height="40" as="geometry"/>
                </mxCell>
                <mxCell id="9" value="" style="rounded=0;whiteSpace=wrap;html=1;" parent="8" vertex="1">
                    <mxGeometry width="20" height="20" as="geometry"/>
                </mxCell>
                <mxCell id="10" value="" style="rounded=0;whiteSpace=wrap;html=1;" parent="8" vertex="1">
                    <mxGeometry y="20" width="20" height="20" as="geometry"/>
                </mxCell>
                <mxCell id="11" value="request_channel" style="text;html=1;strokeColor=none;fillColor=none;align=center;verticalAlign=middle;whiteSpace=wrap;rounded=0;fontSize=10;" parent="1" vertex="1">
                    <mxGeometry x="80" y="500" width="80" height="30" as="geometry"/>
                </mxCell>
                <mxCell id="12" value="source_change&lt;br&gt;_channel" style="text;html=1;strokeColor=none;fillColor=none;align=center;verticalAlign=middle;whiteSpace=wrap;rounded=0;fontSize=10;" parent="1" vertex="1">
                    <mxGeometry x="385" y="500" width="70" height="30" as="geometry"/>
                </mxCell>
                <mxCell id="15" style="edgeStyle=none;html=1;exitX=0.13;exitY=0.77;exitDx=0;exitDy=0;exitPerimeter=0;fontSize=10;" parent="1" source="13" target="5" edge="1">
                    <mxGeometry relative="1" as="geometry">
                        <Array as="points">
                            <mxPoint x="210" y="520"/>
                        </Array>
                    </mxGeometry>
                </mxCell>
                <mxCell id="16" style="edgeStyle=none;html=1;exitX=0.88;exitY=0.25;exitDx=0;exitDy=0;exitPerimeter=0;fontSize=10;" parent="1" source="13" target="9" edge="1">
                    <mxGeometry relative="1" as="geometry">
                        <Array as="points">
                            <mxPoint x="370" y="450"/>
                        </Array>
                    </mxGeometry>
                </mxCell>
                <mxCell id="13" value="" style="ellipse;shape=cloud;whiteSpace=wrap;html=1;fontSize=10;" parent="1" vertex="1">
                    <mxGeometry x="260" y="448.75" width="80" height="62.5" as="geometry"/>
                </mxCell>
                <mxCell id="14" style="edgeStyle=none;html=1;entryX=0.25;entryY=0.25;entryDx=0;entryDy=0;entryPerimeter=0;fontSize=10;" parent="1" source="4" target="13" edge="1">
                    <mxGeometry relative="1" as="geometry">
                        <Array as="points">
                            <mxPoint x="210" y="440"/>
                        </Array>
                    </mxGeometry>
                </mxCell>
                <mxCell id="17" style="edgeStyle=none;html=1;exitX=1;exitY=0.5;exitDx=0;exitDy=0;entryX=0;entryY=0.5;entryDx=0;entryDy=0;fontSize=10;" parent="1" source="10" target="7" edge="1">
                    <mxGeometry relative="1" as="geometry"/>
                </mxCell>
                <mxCell id="18" value="req/noti" style="text;html=1;strokeColor=none;fillColor=none;align=center;verticalAlign=middle;whiteSpace=wrap;rounded=0;fontSize=10;" parent="1" vertex="1">
                    <mxGeometry x="210" y="418.75" width="50" height="30" as="geometry"/>
                </mxCell>
                <mxCell id="19" value="resp/noti" style="text;html=1;strokeColor=none;fillColor=none;align=center;verticalAlign=middle;whiteSpace=wrap;rounded=0;fontSize=10;" parent="1" vertex="1">
                    <mxGeometry x="220" y="511.25" width="30" height="30" as="geometry"/>
                </mxCell>
                <mxCell id="24" value="" style="group" parent="1" vertex="1" connectable="0">
                    <mxGeometry x="285" y="610" width="190" height="80" as="geometry"/>
                </mxCell>
                <mxCell id="23" value="&amp;nbsp; P4Workspace" style="rounded=1;whiteSpace=wrap;html=1;arcSize=4;align=left;verticalAlign=top;dashed=1;" parent="24" vertex="1">
                    <mxGeometry x="20" y="20" width="170" height="60" as="geometry"/>
                </mxCell>
                <mxCell id="22" value="&amp;nbsp; P4Workspace" style="rounded=1;whiteSpace=wrap;html=1;arcSize=4;align=left;verticalAlign=top;dashed=1;" parent="24" vertex="1">
                    <mxGeometry x="10" y="10" width="170" height="60" as="geometry"/>
                </mxCell>
                <mxCell id="21" value="&amp;nbsp; P4Workspace" style="rounded=1;whiteSpace=wrap;html=1;arcSize=4;align=left;verticalAlign=top;" parent="24" vertex="1">
                    <mxGeometry width="170" height="60" as="geometry"/>
                </mxCell>
                <mxCell id="26" style="edgeStyle=none;html=1;entryX=0;entryY=0.5;entryDx=0;entryDy=0;fontSize=10;dashed=1;" parent="1" source="25" target="21" edge="1">
                    <mxGeometry relative="1" as="geometry">
                        <Array as="points">
                            <mxPoint x="265" y="640"/>
                        </Array>
                    </mxGeometry>
                </mxCell>
                <mxCell id="25" value="&amp;nbsp; P4WorkspaceFactory" style="rounded=1;whiteSpace=wrap;html=1;arcSize=4;align=left;verticalAlign=top;" parent="1" vertex="1">
                    <mxGeometry x="180" y="780" width="170" height="60" as="geometry"/>
                </mxCell>
                <mxCell id="27" style="edgeStyle=none;html=1;exitX=0.25;exitY=0;exitDx=0;exitDy=0;entryX=0.55;entryY=0.95;entryDx=0;entryDy=0;entryPerimeter=0;fontSize=10;" parent="1" source="21" target="13" edge="1">
                    <mxGeometry relative="1" as="geometry">
                        <Array as="points">
                            <mxPoint x="304" y="560"/>
                        </Array>
                    </mxGeometry>
                </mxCell>
                <mxCell id="28" value="external file change" style="text;html=1;strokeColor=none;fillColor=none;align=center;verticalAlign=middle;whiteSpace=wrap;rounded=0;fontSize=10;" parent="1" vertex="1">
                    <mxGeometry x="310" y="560" width="60" height="30" as="geometry"/>
                </mxCell>
                <mxCell id="GAak6iXtf49BXPti8kaI-28" value="&amp;nbsp;TracingSubscriber" style="rounded=1;whiteSpace=wrap;html=1;arcSize=12;align=left;verticalAlign=top;" parent="1" vertex="1">
                    <mxGeometry x="180" y="250" width="170" height="60" as="geometry"/>
                </mxCell>
                <mxCell id="29" style="edgeStyle=none;html=1;entryX=0.75;entryY=0;entryDx=0;entryDy=0;fontSize=10;dashed=1;exitX=0.234;exitY=1.001;exitDx=0;exitDy=0;exitPerimeter=0;" parent="1" source="3" target="25" edge="1">
                    <mxGeometry relative="1" as="geometry">
                        <mxPoint x="275" y="770" as="sourcePoint"/>
                        <mxPoint x="295" y="650" as="targetPoint"/>
                    </mxGeometry>
                </mxCell>
            </root>
        </mxGraphModel>
    </diagram>
    <diagram name="Native /LSPServerCommand" id="7uf0tBBzx-ZlqhHjrKZB">
        <mxGraphModel dx="2091" dy="1105" grid="1" gridSize="10" guides="1" tooltips="1" connect="1" arrows="1" fold="1" page="0" pageScale="1" pageWidth="827" pageHeight="1169" background="none" math="0" shadow="1">
            <root>
                <mxCell id="_cCrCONWq11tglR61idp-0"/>
                <mxCell id="_cCrCONWq11tglR61idp-1" parent="_cCrCONWq11tglR61idp-0"/>
                <mxCell id="CulMNdhNaPcD7BCoiE_t-0" value="" style="rounded=0;whiteSpace=wrap;html=1;" vertex="1" parent="_cCrCONWq11tglR61idp-1">
                    <mxGeometry x="-320" y="210" width="1080" height="650" as="geometry"/>
                </mxCell>
                <mxCell id="_cCrCONWq11tglR61idp-28" value="&amp;nbsp; LSPServerCommand" style="rounded=1;whiteSpace=wrap;html=1;arcSize=2;align=left;verticalAlign=top;" parent="_cCrCONWq11tglR61idp-1" vertex="1">
                    <mxGeometry x="-200" y="310" width="930" height="530" as="geometry"/>
                </mxCell>
                <mxCell id="_cCrCONWq11tglR61idp-2" value="&amp;nbsp; AnalyzerHost" style="rounded=1;whiteSpace=wrap;html=1;arcSize=4;align=left;verticalAlign=top;" parent="_cCrCONWq11tglR61idp-1" vertex="1">
                    <mxGeometry x="160" y="340" width="520" height="390" as="geometry"/>
                </mxCell>
                <mxCell id="_cCrCONWq11tglR61idp-3" value="&amp;nbsp; ProtocolMachine" style="rounded=1;whiteSpace=wrap;html=1;arcSize=4;align=left;verticalAlign=top;" parent="_cCrCONWq11tglR61idp-1" vertex="1">
                    <mxGeometry x="200" y="370" width="460" height="340" as="geometry"/>
                </mxCell>
                <mxCell id="_cCrCONWq11tglR61idp-4" value="" style="group" parent="_cCrCONWq11tglR61idp-1" vertex="1" connectable="0">
                    <mxGeometry x="150" y="460" width="20" height="40" as="geometry"/>
                </mxCell>
                <mxCell id="_cCrCONWq11tglR61idp-5" value="" style="rounded=0;whiteSpace=wrap;html=1;dashed=1;" parent="_cCrCONWq11tglR61idp-4" vertex="1">
                    <mxGeometry width="20" height="20" as="geometry"/>
                </mxCell>
                <mxCell id="_cCrCONWq11tglR61idp-6" value="" style="rounded=0;whiteSpace=wrap;html=1;dashed=1;" parent="_cCrCONWq11tglR61idp-4" vertex="1">
                    <mxGeometry y="20" width="20" height="20" as="geometry"/>
                </mxCell>
                <mxCell id="_cCrCONWq11tglR61idp-7" value="&amp;nbsp; Analyzer" style="rounded=1;whiteSpace=wrap;html=1;arcSize=4;align=left;verticalAlign=top;" parent="_cCrCONWq11tglR61idp-1" vertex="1">
                    <mxGeometry x="500" y="455" width="130" height="70" as="geometry"/>
                </mxCell>
                <mxCell id="_cCrCONWq11tglR61idp-8" value="" style="group" parent="_cCrCONWq11tglR61idp-1" vertex="1" connectable="0">
                    <mxGeometry x="410" y="460" width="20" height="40" as="geometry"/>
                </mxCell>
                <mxCell id="_cCrCONWq11tglR61idp-9" value="" style="rounded=0;whiteSpace=wrap;html=1;" parent="_cCrCONWq11tglR61idp-8" vertex="1">
                    <mxGeometry width="20" height="20" as="geometry"/>
                </mxCell>
                <mxCell id="_cCrCONWq11tglR61idp-10" value="" style="rounded=0;whiteSpace=wrap;html=1;" parent="_cCrCONWq11tglR61idp-8" vertex="1">
                    <mxGeometry y="20" width="20" height="20" as="geometry"/>
                </mxCell>
                <mxCell id="_cCrCONWq11tglR61idp-11" value="request_&lt;br&gt;channel" style="text;html=1;strokeColor=none;fillColor=none;align=center;verticalAlign=middle;whiteSpace=wrap;rounded=0;fontSize=10;" parent="_cCrCONWq11tglR61idp-1" vertex="1">
                    <mxGeometry x="100" y="468" width="50" height="30" as="geometry"/>
                </mxCell>
                <mxCell id="_cCrCONWq11tglR61idp-12" value="source_change&lt;br&gt;_channel" style="text;html=1;strokeColor=none;fillColor=none;align=center;verticalAlign=middle;whiteSpace=wrap;rounded=0;fontSize=10;" parent="_cCrCONWq11tglR61idp-1" vertex="1">
                    <mxGeometry x="385" y="500" width="70" height="30" as="geometry"/>
                </mxCell>
                <mxCell id="_cCrCONWq11tglR61idp-13" style="edgeStyle=none;html=1;exitX=0.13;exitY=0.77;exitDx=0;exitDy=0;exitPerimeter=0;fontSize=10;" parent="_cCrCONWq11tglR61idp-1" source="_cCrCONWq11tglR61idp-15" target="_cCrCONWq11tglR61idp-6" edge="1">
                    <mxGeometry relative="1" as="geometry">
                        <Array as="points">
                            <mxPoint x="210" y="520"/>
                        </Array>
                    </mxGeometry>
                </mxCell>
                <mxCell id="_cCrCONWq11tglR61idp-14" style="edgeStyle=none;html=1;exitX=0.88;exitY=0.25;exitDx=0;exitDy=0;exitPerimeter=0;fontSize=10;" parent="_cCrCONWq11tglR61idp-1" source="_cCrCONWq11tglR61idp-15" target="_cCrCONWq11tglR61idp-9" edge="1">
                    <mxGeometry relative="1" as="geometry">
                        <Array as="points">
                            <mxPoint x="370" y="450"/>
                        </Array>
                    </mxGeometry>
                </mxCell>
                <mxCell id="_cCrCONWq11tglR61idp-15" value="" style="ellipse;shape=cloud;whiteSpace=wrap;html=1;fontSize=10;" parent="_cCrCONWq11tglR61idp-1" vertex="1">
                    <mxGeometry x="260" y="448.75" width="80" height="62.5" as="geometry"/>
                </mxCell>
                <mxCell id="_cCrCONWq11tglR61idp-16" style="edgeStyle=none;html=1;entryX=0.25;entryY=0.25;entryDx=0;entryDy=0;entryPerimeter=0;fontSize=10;" parent="_cCrCONWq11tglR61idp-1" source="_cCrCONWq11tglR61idp-5" target="_cCrCONWq11tglR61idp-15" edge="1">
                    <mxGeometry relative="1" as="geometry">
                        <Array as="points">
                            <mxPoint x="210" y="440"/>
                        </Array>
                    </mxGeometry>
                </mxCell>
                <mxCell id="_cCrCONWq11tglR61idp-17" style="edgeStyle=none;html=1;exitX=1;exitY=0.5;exitDx=0;exitDy=0;entryX=0;entryY=0.5;entryDx=0;entryDy=0;fontSize=10;" parent="_cCrCONWq11tglR61idp-1" source="_cCrCONWq11tglR61idp-10" target="_cCrCONWq11tglR61idp-7" edge="1">
                    <mxGeometry relative="1" as="geometry"/>
                </mxCell>
                <mxCell id="_cCrCONWq11tglR61idp-18" value="req/noti" style="text;html=1;strokeColor=none;fillColor=none;align=center;verticalAlign=middle;whiteSpace=wrap;rounded=0;fontSize=10;" parent="_cCrCONWq11tglR61idp-1" vertex="1">
                    <mxGeometry x="210" y="418.75" width="50" height="30" as="geometry"/>
                </mxCell>
                <mxCell id="_cCrCONWq11tglR61idp-19" value="resp/noti" style="text;html=1;strokeColor=none;fillColor=none;align=center;verticalAlign=middle;whiteSpace=wrap;rounded=0;fontSize=10;" parent="_cCrCONWq11tglR61idp-1" vertex="1">
                    <mxGeometry x="220" y="508.87" width="30" height="30" as="geometry"/>
                </mxCell>
                <mxCell id="_cCrCONWq11tglR61idp-20" value="" style="group" parent="_cCrCONWq11tglR61idp-1" vertex="1" connectable="0">
                    <mxGeometry x="285" y="610" width="190" height="80" as="geometry"/>
                </mxCell>
                <mxCell id="_cCrCONWq11tglR61idp-21" value="&amp;nbsp; P4Workspace" style="rounded=1;whiteSpace=wrap;html=1;arcSize=4;align=left;verticalAlign=top;dashed=1;" parent="_cCrCONWq11tglR61idp-20" vertex="1">
                    <mxGeometry x="20" y="20" width="170" height="60" as="geometry"/>
                </mxCell>
                <mxCell id="_cCrCONWq11tglR61idp-22" value="&amp;nbsp; P4Workspace" style="rounded=1;whiteSpace=wrap;html=1;arcSize=4;align=left;verticalAlign=top;dashed=1;" parent="_cCrCONWq11tglR61idp-20" vertex="1">
                    <mxGeometry x="10" y="10" width="170" height="60" as="geometry"/>
                </mxCell>
                <mxCell id="_cCrCONWq11tglR61idp-23" value="&amp;nbsp; P4Workspace" style="rounded=1;whiteSpace=wrap;html=1;arcSize=4;align=left;verticalAlign=top;" parent="_cCrCONWq11tglR61idp-20" vertex="1">
                    <mxGeometry width="170" height="60" as="geometry"/>
                </mxCell>
                <mxCell id="_cCrCONWq11tglR61idp-24" style="edgeStyle=none;html=1;entryX=0;entryY=0.5;entryDx=0;entryDy=0;fontSize=10;dashed=1;" parent="_cCrCONWq11tglR61idp-1" source="_cCrCONWq11tglR61idp-25" target="_cCrCONWq11tglR61idp-23" edge="1">
                    <mxGeometry relative="1" as="geometry">
                        <Array as="points">
                            <mxPoint x="265" y="640"/>
                        </Array>
                    </mxGeometry>
                </mxCell>
                <mxCell id="_cCrCONWq11tglR61idp-25" value="&amp;nbsp; P4WorkspaceFactory" style="rounded=1;whiteSpace=wrap;html=1;arcSize=4;align=left;verticalAlign=top;" parent="_cCrCONWq11tglR61idp-1" vertex="1">
                    <mxGeometry x="180" y="760" width="170" height="60" as="geometry"/>
                </mxCell>
                <mxCell id="_cCrCONWq11tglR61idp-26" style="edgeStyle=none;html=1;exitX=0.25;exitY=0;exitDx=0;exitDy=0;entryX=0.55;entryY=0.95;entryDx=0;entryDy=0;entryPerimeter=0;fontSize=10;" parent="_cCrCONWq11tglR61idp-1" source="_cCrCONWq11tglR61idp-23" target="_cCrCONWq11tglR61idp-15" edge="1">
                    <mxGeometry relative="1" as="geometry">
                        <Array as="points">
                            <mxPoint x="304" y="560"/>
                        </Array>
                    </mxGeometry>
                </mxCell>
                <mxCell id="_cCrCONWq11tglR61idp-27" value="external file change" style="text;html=1;strokeColor=none;fillColor=none;align=center;verticalAlign=middle;whiteSpace=wrap;rounded=0;fontSize=10;" parent="_cCrCONWq11tglR61idp-1" vertex="1">
                    <mxGeometry x="310" y="560" width="60" height="30" as="geometry"/>
                </mxCell>
                <mxCell id="_cCrCONWq11tglR61idp-29" value="&amp;nbsp; ConsoleDriver" style="rounded=1;whiteSpace=wrap;html=1;arcSize=4;align=left;verticalAlign=top;" parent="_cCrCONWq11tglR61idp-1" vertex="1">
                    <mxGeometry x="-160" y="356.87" width="230" height="233.13" as="geometry"/>
                </mxCell>
                <mxCell id="_cCrCONWq11tglR61idp-30" value="" style="group" parent="_cCrCONWq11tglR61idp-1" vertex="1" connectable="0">
                    <mxGeometry x="10" y="400" width="20" height="40" as="geometry"/>
                </mxCell>
                <mxCell id="_cCrCONWq11tglR61idp-31" value="" style="rounded=0;whiteSpace=wrap;html=1;" parent="_cCrCONWq11tglR61idp-30" vertex="1">
                    <mxGeometry width="20" height="20" as="geometry"/>
                </mxCell>
                <mxCell id="_cCrCONWq11tglR61idp-32" value="" style="rounded=0;whiteSpace=wrap;html=1;dashed=1;" parent="_cCrCONWq11tglR61idp-30" vertex="1">
                    <mxGeometry y="20" width="20" height="20" as="geometry"/>
                </mxCell>
                <mxCell id="_cCrCONWq11tglR61idp-33" value="stdin_channel" style="text;html=1;strokeColor=none;fillColor=none;align=center;verticalAlign=middle;whiteSpace=wrap;rounded=0;fontSize=10;" parent="_cCrCONWq11tglR61idp-1" vertex="1">
                    <mxGeometry x="-20" y="438" width="80" height="30" as="geometry"/>
                </mxCell>
                <mxCell id="_cCrCONWq11tglR61idp-41" style="edgeStyle=none;html=1;entryX=0;entryY=0.5;entryDx=0;entryDy=0;" parent="_cCrCONWq11tglR61idp-1" target="_cCrCONWq11tglR61idp-31" edge="1">
                    <mxGeometry relative="1" as="geometry">
                        <mxPoint x="-230" y="420" as="sourcePoint"/>
                        <Array as="points">
                            <mxPoint x="-150" y="430"/>
                            <mxPoint x="-20" y="400"/>
                        </Array>
                    </mxGeometry>
                </mxCell>
                <mxCell id="_cCrCONWq11tglR61idp-34" value="" style="ellipse;shape=cloud;whiteSpace=wrap;html=1;fontSize=10;" parent="_cCrCONWq11tglR61idp-1" vertex="1">
                    <mxGeometry x="-120" y="388.75" width="80" height="62.5" as="geometry"/>
                </mxCell>
                <mxCell id="_cCrCONWq11tglR61idp-35" value="" style="group" parent="_cCrCONWq11tglR61idp-1" vertex="1" connectable="0">
                    <mxGeometry x="10" y="498.87" width="20" height="40" as="geometry"/>
                </mxCell>
                <mxCell id="_cCrCONWq11tglR61idp-36" value="" style="rounded=0;whiteSpace=wrap;html=1;dashed=1;" parent="_cCrCONWq11tglR61idp-35" vertex="1">
                    <mxGeometry width="20" height="20" as="geometry"/>
                </mxCell>
                <mxCell id="_cCrCONWq11tglR61idp-37" value="" style="rounded=0;whiteSpace=wrap;html=1;" parent="_cCrCONWq11tglR61idp-35" vertex="1">
                    <mxGeometry y="20" width="20" height="20" as="geometry"/>
                </mxCell>
                <mxCell id="_cCrCONWq11tglR61idp-38" value="stdout_channel" style="text;html=1;strokeColor=none;fillColor=none;align=center;verticalAlign=middle;whiteSpace=wrap;rounded=0;fontSize=10;" parent="_cCrCONWq11tglR61idp-1" vertex="1">
                    <mxGeometry x="-20" y="536.87" width="80" height="30" as="geometry"/>
                </mxCell>
                <mxCell id="_cCrCONWq11tglR61idp-40" style="edgeStyle=none;html=1;exitX=0;exitY=0.5;exitDx=0;exitDy=0;" parent="_cCrCONWq11tglR61idp-1" source="_cCrCONWq11tglR61idp-37" edge="1">
                    <mxGeometry relative="1" as="geometry">
                        <mxPoint x="-260" y="520" as="targetPoint"/>
                        <Array as="points">
                            <mxPoint x="-10" y="540"/>
                            <mxPoint x="-140" y="510"/>
                        </Array>
                    </mxGeometry>
                </mxCell>
                <mxCell id="_cCrCONWq11tglR61idp-46" value="" style="group;rotation=-180;" parent="_cCrCONWq11tglR61idp-1" vertex="1" connectable="0">
                    <mxGeometry x="-300.00002034505206" y="490.12" width="40.000020345052064" height="60" as="geometry"/>
                </mxCell>
                <mxCell id="_cCrCONWq11tglR61idp-43" value="" style="endArrow=none;html=1;" parent="_cCrCONWq11tglR61idp-46" edge="1">
                    <mxGeometry width="50" height="50" relative="1" as="geometry">
                        <mxPoint x="40" as="sourcePoint"/>
                        <mxPoint x="40" y="60" as="targetPoint"/>
                    </mxGeometry>
                </mxCell>
                <mxCell id="_cCrCONWq11tglR61idp-44" value="" style="endArrow=none;html=1;" parent="_cCrCONWq11tglR61idp-46" edge="1">
                    <mxGeometry width="50" height="50" relative="1" as="geometry">
                        <mxPoint x="30" as="sourcePoint"/>
                        <mxPoint x="30" y="60" as="targetPoint"/>
                    </mxGeometry>
                </mxCell>
                <mxCell id="_cCrCONWq11tglR61idp-45" value="" style="endArrow=classic;html=1;" parent="_cCrCONWq11tglR61idp-46" edge="1">
                    <mxGeometry width="50" height="50" relative="1" as="geometry">
                        <mxPoint x="30" y="30" as="sourcePoint"/>
                        <mxPoint y="30" as="targetPoint"/>
                    </mxGeometry>
                </mxCell>
                <mxCell id="_cCrCONWq11tglR61idp-47" value="" style="group" parent="_cCrCONWq11tglR61idp-1" vertex="1" connectable="0">
                    <mxGeometry x="-270.00002034505206" y="388.75" width="40.000020345052064" height="60" as="geometry"/>
                </mxCell>
                <mxCell id="_cCrCONWq11tglR61idp-48" value="" style="endArrow=none;html=1;" parent="_cCrCONWq11tglR61idp-47" edge="1">
                    <mxGeometry width="50" height="50" relative="1" as="geometry">
                        <mxPoint x="0.000020345052064385527" y="60" as="sourcePoint"/>
                        <mxPoint as="targetPoint"/>
                    </mxGeometry>
                </mxCell>
                <mxCell id="_cCrCONWq11tglR61idp-49" value="" style="endArrow=none;html=1;" parent="_cCrCONWq11tglR61idp-47" edge="1">
                    <mxGeometry width="50" height="50" relative="1" as="geometry">
                        <mxPoint x="10.000020345052064" y="60" as="sourcePoint"/>
                        <mxPoint x="10.000000000000057" as="targetPoint"/>
                    </mxGeometry>
                </mxCell>
                <mxCell id="_cCrCONWq11tglR61idp-50" value="" style="endArrow=classic;html=1;" parent="_cCrCONWq11tglR61idp-47" edge="1">
                    <mxGeometry width="50" height="50" relative="1" as="geometry">
                        <mxPoint x="10.000020345052064" y="30" as="sourcePoint"/>
                        <mxPoint x="40.000020345052064" y="30" as="targetPoint"/>
                    </mxGeometry>
                </mxCell>
                <mxCell id="_cCrCONWq11tglR61idp-51" style="edgeStyle=none;html=1;entryX=0;entryY=0.5;entryDx=0;entryDy=0;dashed=1;" parent="_cCrCONWq11tglR61idp-1" source="_cCrCONWq11tglR61idp-32" target="_cCrCONWq11tglR61idp-5" edge="1">
                    <mxGeometry relative="1" as="geometry">
                        <Array as="points">
                            <mxPoint x="100" y="440"/>
                        </Array>
                    </mxGeometry>
                </mxCell>
                <mxCell id="_cCrCONWq11tglR61idp-53" style="edgeStyle=none;html=1;entryX=1;entryY=0.5;entryDx=0;entryDy=0;dashed=1;" parent="_cCrCONWq11tglR61idp-1" source="_cCrCONWq11tglR61idp-6" target="_cCrCONWq11tglR61idp-36" edge="1">
                    <mxGeometry relative="1" as="geometry">
                        <Array as="points">
                            <mxPoint x="100" y="509"/>
                        </Array>
                    </mxGeometry>
                </mxCell>
                <mxCell id="_cCrCONWq11tglR61idp-39" value="" style="ellipse;shape=cloud;whiteSpace=wrap;html=1;fontSize=10;" parent="_cCrCONWq11tglR61idp-1" vertex="1">
                    <mxGeometry x="-120" y="487.62" width="80" height="62.5" as="geometry"/>
                </mxCell>
                <mxCell id="7OUndOawT07bV0tNMrXz-0" value="STDIN" style="text;html=1;strokeColor=none;fillColor=none;align=center;verticalAlign=middle;whiteSpace=wrap;rounded=0;fontStyle=1" parent="_cCrCONWq11tglR61idp-1" vertex="1">
                    <mxGeometry x="-294" y="363.75" width="60" height="30" as="geometry"/>
                </mxCell>
                <mxCell id="7OUndOawT07bV0tNMrXz-1" value="STDOUT" style="text;html=1;strokeColor=none;fillColor=none;align=center;verticalAlign=middle;whiteSpace=wrap;rounded=0;fontStyle=1" parent="_cCrCONWq11tglR61idp-1" vertex="1">
                    <mxGeometry x="-294" y="544.25" width="60" height="30" as="geometry"/>
                </mxCell>
                <mxCell id="Qs2lp3DL-WBRifaDgib_-0" value="&amp;nbsp;CommandTracingSubscriber" style="rounded=1;whiteSpace=wrap;html=1;arcSize=12;align=left;verticalAlign=top;" parent="_cCrCONWq11tglR61idp-1" vertex="1">
                    <mxGeometry x="-180" y="220" width="170" height="60" as="geometry"/>
                </mxCell>
                <mxCell id="OXb8NNDGnLiuSQAw2eFQ-0" style="edgeStyle=none;html=1;fontSize=10;dashed=1;exitX=0.234;exitY=1.001;exitDx=0;exitDy=0;exitPerimeter=0;" parent="_cCrCONWq11tglR61idp-1" edge="1">
                    <mxGeometry relative="1" as="geometry">
                        <mxPoint x="307.6400000000001" y="710.3400000000001" as="sourcePoint"/>
                        <mxPoint x="308" y="760" as="targetPoint"/>
                    </mxGeometry>
                </mxCell>
            </root>
        </mxGraphModel>
    </diagram>
</mxfile>
